<svg width="4.2333mm" height="4.2333mm" version="1.1" viewBox="0 0 4.2333 4.2333" xmlns="http://www.w3.org/2000/svg">
 <path d="m2.8532 0.28584c0.14775 0.13544 0.32404 0.31989 0.5774 0.57413 0.074459 0.074597 0.10305 0.19733 0.046509 0.3297-0.025903 0.06563-0.01016 0.14034 0.039791 0.19017 0.069935 0.066995 0.18018 0.066995 0.25011 0 0.069069-0.068942 0.2099-0.023098 0.24443 0.011377l0.12712 0.12712v-0.00106c0.1036 0.10363 0.1036 0.27154 0 0.37517l-0.6258 0.6258c-0.10363 0.1036-0.27154 0.1036-0.37517 0l-0.12144-0.13797c-0.069189-0.069109-0.069189-0.18101 0-0.25012 0.069067-0.069088 0.069067-0.18103 0-0.25011-0.069911-0.066884-0.19774-0.078576-0.26765-0.011695l-0.31001 0.29239-0.64672-0.64673s0.22209-0.21916 0.28777-0.28175c0.1629-0.16547 0.015981-0.30496-0.055576-0.37593-0.17554-0.17464-0.54016-0.24362-0.78755-0.23306-0.077401 0.0028046-0.14788-0.044119-0.17467-0.11679-0.025982-0.07335-0.0010583-0.15527 0.061494-0.20154 0.72886-0.30696 1.4427-0.30696 1.73-0.019106zm-0.64743 2.1261-1.3992 1.3971c-0.098962 0.099116-0.17825 0.16491-0.26986 0.16438-0.28917-0.0071173-0.52205-0.24-0.52917-0.52917-2.6458e-4 -0.14042 0.033504-0.19149 0.13313-0.29046l1.4012-1.3948z" fill="#222" stroke-width=".26458"/>
</svg>
