<svg width="4.2333mm" height="4.2333mm" version="1.1" viewBox="0 0 4.2333 4.2333" xmlns="http://www.w3.org/2000/svg">
 <g transform="translate(-172.88 -110.25)" fill="#222" stroke-width=".26458">
  <path d="m175.52 111.31v0.26459c0 0.068 0.0344 0.13982 0.0827 0.19017l0.59531 0.60358-0.59531 0.60358c-0.0483 0.0503-0.0827 0.1222-0.0827 0.19017v0.26458h0.26459c0.0819 0 0.14613-0.0239 0.19843-0.0744l0.96739-0.98392-0.96739-0.98392c-0.0523-0.0505-0.11656-0.0744-0.19843-0.0744z"/>
  <path d="m174.47 111.31v0.26459c0 0.068-0.0343 0.13982-0.0827 0.19017l-0.59532 0.60358 0.59532 0.60358c0.0483 0.0503 0.0827 0.1222 0.0827 0.19017v0.26458h-0.26458c-0.0819 0-0.14614-0.0239-0.19844-0.0744l-0.96738-0.98392 0.96738-0.98392c0.0523-0.0505 0.11656-0.0744 0.19844-0.0744z"/>
 </g>
</svg>
