<svg xmlns:dc="http://purl.org/dc/elements/1.1/" xmlns:cc="http://creativecommons.org/ns#" xmlns:rdf="http://www.w3.org/1999/02/22-rdf-syntax-ns#" xmlns:svg="http://www.w3.org/2000/svg" xmlns="http://www.w3.org/2000/svg" xmlns:sodipodi="http://sodipodi.sourceforge.net/DTD/sodipodi-0.dtd" xmlns:inkscape="http://www.inkscape.org/namespaces/inkscape" width="4.2333393mm" height="4.2333341mm" viewBox="0 0 4.2333393 4.2333341" version="1.1" id="svg6019" inkscape:version="1.0.2 (e86c870879, 2021-01-15)" sodipodi:docname="clock.svg"><sodipodi:namedview id="base" pagecolor="#ffffff" bordercolor="#666666" borderopacity="1.0" inkscape:pageopacity="0.0" inkscape:pageshadow="2" inkscape:zoom="15.839192" inkscape:cx="26.412802" inkscape:cy="19.052888" inkscape:document-units="mm" inkscape:current-layer="layer1" inkscape:document-rotation="0" showgrid="false" inkscape:window-width="1497" inkscape:window-height="1030" inkscape:window-x="0" inkscape:window-y="0" inkscape:window-maximized="0"/><g inkscape:label="图层 1" inkscape:groupmode="layer" id="layer1" transform="translate(-213.32976,-43.240476)"><path style="fill:#222222;stroke-width:0.284936" d="m 215.44643,43.240476 c -1.16515,0 -2.11667,0.951521 -2.11667,2.116667 0,1.165146 0.95152,2.116667 2.11667,2.116667 1.16514,0 2.11667,-0.951521 2.11667,-2.116667 0,-1.165146 -0.95153,-2.116667 -2.11667,-2.116667 z m 0,0.524516 c 0.88361,0 1.59215,0.708535 1.59215,1.592151 0,0.883616 -0.70854,1.592151 -1.59215,1.592151 -0.88362,0 -1.59215,-0.708535 -1.59215,-1.592151 0,-0.883616 0.70853,-1.592151 1.59215,-1.592151 z m -0.14263,0.269234 v 1.263489 c 0,0.07405 0.0263,0.135437 0.0755,0.163814 l 0.74931,0.55087 0.17621,-0.223758 -0.71571,-0.530201 v -1.224214 z" id="path7826"/></g></svg>