<svg width="4.2333mm" height="4.2368mm" version="1.1" viewBox="0 0 4.2333 4.2368" xmlns="http://www.w3.org/2000/svg">
 <g transform="translate(-182.39 -113.6)">
  <path d="m182.93 113.86a0.26317 0.26317 0 0 0-0.26303 0.26304l-2e-3 2.3828a0.26444 0.26444 0 0 0 0.26458 0.26458h0.52917v-1.5875a0.52917 0.52917 0 0 1 0.52916-0.52917h1.3229v-0.52916a0.26458 0.26458 0 0 0-0.26458-0.26459zm1.0583 1.0583a0.26458 0.26458 0 0 0-0.26458 0.26458v2.3812a0.26458 0.26458 0 0 0 0.26458 0.26458h1.5875l0.79375-0.79375v-1.8521a0.26458 0.26458 0 0 0-0.26458-0.26458z" fill="#222" stroke-width=".26458"/>
 </g>
</svg>
