<svg width="4.2338mm" height="4.2334mm" version="1.1" viewBox="0 0 4.2338 4.2334" xmlns="http://www.w3.org/2000/svg">
 <g transform="translate(-282.88 -161.92)">
  <path d="m284.9 161.93a2.1185 2.1185 0 0 0-1.696 0.97772 2.119 2.119 0 0 0 0.19482 2.5332 2.1183 2.1183 0 0 0 2.4862 0.52141 0.2646 0.2646 0 1 0-0.22376-0.47955 1.5856 1.5856 0 0 1-1.865-0.3912 1.5849 1.5849 0 0 1-0.14573-1.8996 1.5849 1.5849 0 0 1 1.7828-0.67128 1.5851 1.5851 0 0 1 1.1436 1.5239 0.26458 0.26458 0 0 0 0 0.0109v0.25373c0 0.095-0.05 0.18157-0.1323 0.22893-0.082 0.0476-0.18229 0.0476-0.26458 0a0.26326 0.26326 0 0 1-0.13229-0.22893v-0.26458c0-0.58129-0.47704-1.0583-1.0583-1.0583s-1.0583 0.47704-1.0583 1.0583 0.47705 1.0583 1.0583 1.0583c0.2761 0 0.5266-0.10994 0.71571-0.28525 0.0587 0.0702 0.12875 0.13172 0.21033 0.1788a0.79481 0.79481 0 0 0 0.79375 0 0.79454 0.79454 0 0 0 0.39687-0.6873v-0.26458a2.1188 2.1188 0 0 0-1.5244-2.0324 2.1122 2.1122 0 0 0-0.68161-0.0822zm0.0894 1.5854c0.29554 0 0.52916 0.2339 0.52916 0.52917 0 0.29528-0.23362 0.52917-0.52916 0.52917-0.29528 0-0.52917-0.23389-0.52917-0.52917 0-0.29527 0.23389-0.52917 0.52917-0.52917z" fill="#222" stroke-width=".26458"/>
 </g>
</svg>
