<svg width="4.2333mm" height="4.2333mm" version="1.1" viewBox="0 0 4.2333 4.2333" xmlns="http://www.w3.org/2000/svg">
 <g transform="translate(167.67 64.861)" fill="#222" stroke-width=".26458">
  <path d="m-166.08-63.538a1.3229 1.3229 0 0 0-1.3229 1.3229 1.3229 1.3229 0 0 0 1.3229 1.3229 1.3229 1.3229 0 0 0 1.3229-1.3229 1.3229 1.3229 0 0 0-1.3229-1.3229zm-0.26458 1.3229a0.26458 0.26458 0 0 1 0.26458 0.26458 0.26458 0.26458 0 0 1-0.26458 0.26458 0.26458 0.26458 0 0 1-0.26459-0.26458 0.26458 0.26458 0 0 1 0.26459-0.26458z"/>
  <path d="m-163.7-64.596h-0.79375l-1.5875 1.5875 1.0583 0.26458 0.26459-0.26458h0.52916v-0.52917h0.52917z"/>
 </g>
</svg>
