<svg
   xmlns:dc="http://purl.org/dc/elements/1.1/"
   xmlns:cc="http://creativecommons.org/ns#"
   xmlns:rdf="http://www.w3.org/1999/02/22-rdf-syntax-ns#"
   xmlns:svg="http://www.w3.org/2000/svg"
   xmlns="http://www.w3.org/2000/svg"
   xmlns:sodipodi="http://sodipodi.sourceforge.net/DTD/sodipodi-0.dtd"
   xmlns:inkscape="http://www.inkscape.org/namespaces/inkscape"
   width="4.2333mm"
   height="4.2334mm"
   version="1.1"
   viewBox="0 0 4.2333 4.2334"
   id="svg8"
   sodipodi:docname="mle.svg"
   inkscape:version="1.0.2 (e86c870879, 2021-01-15)">
  <metadata
     id="metadata14">
    <rdf:RDF>
      <cc:Work
         rdf:about="">
        <dc:format>image/svg+xml</dc:format>
        <dc:type
           rdf:resource="http://purl.org/dc/dcmitype/StillImage" />
      </cc:Work>
    </rdf:RDF>
  </metadata>
  <defs
     id="defs12" />
  <sodipodi:namedview
     pagecolor="#ffffff"
     bordercolor="#666666"
     borderopacity="1"
     objecttolerance="10"
     gridtolerance="10"
     guidetolerance="10"
     inkscape:pageopacity="0"
     inkscape:pageshadow="2"
     inkscape:window-width="1920"
     inkscape:window-height="1025"
     id="namedview10"
     showgrid="false"
     inkscape:zoom="52.436676"
     inkscape:cx="7.9999374"
     inkscape:cy="8.0001257"
     inkscape:window-x="0"
     inkscape:window-y="0"
     inkscape:window-maximized="1"
     inkscape:current-layer="svg8" />
  <path
     id="path2"
     style="fill:#2e3436;stroke-width:3.77953"
     d="M 4.0742188 1.0195312 C 3.5058005 1.0256206 2.9549706 1.5526061 3.0507812 2.1699219 L 3.03125 3.2851562 C 1.7099119 3.8166519 0.89775646 5.2570478 1.0195312 6.6601562 C 1.0319281 8.1397283 0.99345783 9.6193753 1.0410156 11.097656 C 1.1617403 12.26214 1.9583273 13.321921 3.0410156 13.765625 C 3.0759989 14.341884 2.9478333 14.946344 3.1582031 15.494141 C 3.601135 16.447714 5.1781728 15.978039 5.0410156 14.941406 L 5.0410156 14.023438 L 7.0195312 14.023438 C 7.0604371 14.651962 6.8404013 15.439092 7.4628906 15.855469 C 8.1768918 16.377166 9.1770378 15.647699 9.0195312 14.818359 L 9.0195312 14.023438 L 11.019531 14.023438 C 11.060437 14.651962 10.840401 15.439092 11.462891 15.855469 C 12.176892 16.377166 13.177038 15.647699 13.019531 14.818359 L 13.019531 13.755859 C 14.334295 13.220918 15.140698 11.78724 15.019531 10.388672 C 15.007292 8.9101044 15.044936 7.430429 14.998047 5.953125 C 14.879086 4.7979902 14.094747 3.7450303 13.025391 3.2949219 C 12.994516 2.7163114 13.122584 2.1126664 12.919922 1.5605469 C 12.497405 0.61664091 10.938159 1.0313637 11.033203 2.0566406 L 11.025391 3.0234375 L 9.0273438 3.0234375 C 8.991371 2.3968262 9.2162596 1.6169685 8.6015625 1.1953125 C 8.4406181 1.0844305 8.2461329 1.0217718 8.0507812 1.0195312 C 7.3347974 0.98285596 6.9416598 1.7133856 7.0292969 2.3457031 C 6.9770385 2.5488248 7.1282563 2.9559205 6.9414062 3.0234375 L 5.0351562 3.0234375 C 5.0081738 2.3998192 5.2356273 1.6249228 4.625 1.203125 C 4.4550088 1.0729219 4.2636915 1.0175015 4.0742188 1.0195312 z M 4.3242188 5.0253906 C 6.8311057 5.0298127 9.3371423 5.0156406 11.84375 5.03125 C 12.604234 5.0833735 13.116725 5.8531262 13.017578 6.578125 C 13.010126 7.7892032 13.01879 9.0001079 13.005859 10.210938 C 12.811279 10.523591 12.656763 11.05859 12.132812 11.009766 C 12.08334 11.010026 12.033848 11.009523 11.984375 11.009766 C 11.954951 11.008182 11.925963 11.006179 11.896484 11.009766 C 9.3616037 11.021651 6.826114 11.011813 4.2910156 11.015625 C 3.6824717 11.110662 3.010315 10.670066 3.0234375 10.015625 L 3.0136719 10.015625 C 3.0193845 9.8383431 3.0294498 9.6595942 3.0175781 9.4863281 C 3.0331133 8.3469177 2.9841793 7.2031105 3.0429688 6.0664062 C 3.1541755 5.4706416 3.7182655 5.013995 4.3242188 5.0253906 z "
     transform="scale(0.26458333)" />
</svg>
