<svg width="4.2371mm" height="4.2371mm" version="1.1" viewBox="0 0 4.2371 4.2371" xmlns="http://www.w3.org/2000/svg">
 <g transform="translate(-200.08 6.5456)">
  <g transform="matrix(.26458 0 0 .26458 64.613 -35.117)" fill="#222">
   <title>text</title>
   <path transform="translate(432,-308)" d="m89 418v5h4v-1zm-4 2v1h3v-1zm0 2v1h3v-1zm0 2v1h6v-1zm0 2v1h6v-1zm0 2v1h6v-1z" fill="#2e3436"/>
   <path d="m514 121c0 1.6619 1.3381 3 3 3h6c1.6619 0 3-1.3381 3-3v-5c0-1.5459-0.61397-3.0282-1.7071-4.1213l-1.1716-1.1716c-1.0931-1.0931-2.5754-1.7071-4.1213-1.7071h-2c-1.6619 0-3 1.3381-3 3zm3-10h2c1.0152 0 1.9892 0.40345 2.7071 1.1213l1.1716 1.1716c0.71787 0.71788 1.1213 1.6919 1.1213 2.7071v5c0 0.54724-0.45276 1-1 1h-6c-0.54724 0-1-0.45276-1-1v-9c0-0.54724 0.45276-1 1-1z" fill="#2e3436"/>
  </g>
 </g>
</svg>
