<svg
   xmlns:dc="http://purl.org/dc/elements/1.1/"
   xmlns:cc="http://creativecommons.org/ns#"
   xmlns:rdf="http://www.w3.org/1999/02/22-rdf-syntax-ns#"
   xmlns:svg="http://www.w3.org/2000/svg"
   xmlns="http://www.w3.org/2000/svg"
   xmlns:sodipodi="http://sodipodi.sourceforge.net/DTD/sodipodi-0.dtd"
   xmlns:inkscape="http://www.inkscape.org/namespaces/inkscape"
   width="4.2333331mm"
   height="4.236762mm"
   viewBox="0 0 4.2333331 4.236762"
   version="1.1"
   id="svg6654"
   inkscape:version="1.0.2 (e86c870879, 2021-01-15)"
   sodipodi:docname="paste.svg">
  <defs
     id="defs6648" />
  <sodipodi:namedview
     id="base"
     pagecolor="#ffffff"
     bordercolor="#666666"
     borderopacity="1.0"
     inkscape:pageopacity="0.0"
     inkscape:pageshadow="2"
     inkscape:zoom="7.9195959"
     inkscape:cx="-8.7983659"
     inkscape:cy="-28.795912"
     inkscape:document-units="mm"
     inkscape:current-layer="layer1"
     inkscape:document-rotation="0"
     showgrid="false"
     inkscape:window-width="1497"
     inkscape:window-height="1030"
     inkscape:window-x="0"
     inkscape:window-y="0"
     inkscape:window-maximized="0" />
  <metadata
     id="metadata6651">
    <rdf:RDF>
      <cc:Work
         rdf:about="">
        <dc:format>image/svg+xml</dc:format>
        <dc:type
           rdf:resource="http://purl.org/dc/dcmitype/StillImage" />
        <dc:title></dc:title>
      </cc:Work>
    </rdf:RDF>
  </metadata>
  <g
     inkscape:label="图层 1"
     inkscape:groupmode="layer"
     id="layer1"
     transform="translate(-187.62667,-118.89339)">
    <path
       id="rect4897"
       style="fill:#222222;stroke-width:0.264583"
       d="m 189.61689,118.89682 c -0.0733,0 -0.1323,0.059 -0.1323,0.13229 v 0.13229 h -0.39687 c -0.0733,0 -0.13229,0.059 -0.13229,0.13229 v 0.79375 c 0,0.0733 0.059,0.13229 0.13229,0.13229 h 1.32292 c 0.0733,0 0.13229,-0.059 0.13229,-0.13229 v -0.79375 c 0,-0.0733 -0.059,-0.13229 -0.13229,-0.13229 h -0.39688 v -0.13229 c 0,-0.0733 -0.059,-0.13229 -0.13229,-0.13229 z m -0.92605,0.26458 c -0.43516,0 -0.79375,0.35859 -0.79375,0.79375 v 2.38125 c 0,0.43516 0.35859,0.79375 0.79375,0.79375 h 2.11667 c 0.43516,0 0.79375,-0.35859 0.79375,-0.79375 v -2.38125 c 0,-0.43516 -0.35859,-0.79375 -0.79375,-0.79375 v 0.52917 c 0.15116,0 0.26458,0.11342 0.26458,0.26458 v 2.38125 c 0,0.15116 -0.11342,0.26458 -0.26458,0.26458 h -2.11667 c -0.15115,0 -0.26458,-0.11342 -0.26458,-0.26458 v -2.38125 c 0,-0.15116 0.11343,-0.26458 0.26458,-0.26458 z m 0.003,1.32757 v 1.57923 h 1.5875 l 0.52652,-0.52555 -0.006,-1.05368 z" />
  </g>
</svg>
