<svg width="4.2333mm" height="4.2333mm" version="1.1" viewBox="0 0 4.2333 4.2333" xmlns="http://www.w3.org/2000/svg">
 <path d="m1.6867 0.0051675a0.26461 0.26461 0 0 0-0.098184 0.041341 0.26461 0.26461 0 0 0-0.10697 0.28164s0.099573 0.40257 0.17363 0.85215c0.036915 0.22409 0.067119 0.45903 0.075964 0.65319-0.054102-0.051242-0.094583-0.059751-0.14211-0.12092-0.13605-0.1751-0.22686-0.3421-0.22686-0.3421a0.26461 0.26461 0 0 0-0.47749 0.026353s-0.14234 0.34859-0.24081 0.76946c-0.098475 0.42087-0.19975 0.92328 0.061497 1.3229 0.42278 0.64672 1.23 0.88651 1.9404 0.66042v-0.56844c-0.00527 0.00265-0.01016 0.00527-0.015505 0.00775-0.5289 0.24578-1.1676 0.09199-1.4821-0.38912-0.076679-0.1173-0.076618-0.53926 0.010848-0.91312 0.024765-0.10578 0.033536-0.10456 0.060978-0.19534 0.1599 0.20089 0.35807 0.42062 0.66714 0.48524a0.26461 0.26461 0 0 0 0.29146-0.14159c0.097298-0.19687 0.091416-0.39424 0.081132-0.62322-0.010292-0.22898-0.043609-0.48059-0.082682-0.71779-0.01315-0.079875-0.01651-0.075396-0.030491-0.15038 0.099888 0.084048 0.10592 0.074046 0.21601 0.17828 0.39535 0.37432 0.77911 0.8723 0.8263 1.1948 0.016828 0.11501 0.024395 0.22492 0.022225 0.32918h0.524c0.0050536-0.13416-0.0023812-0.27025-0.022225-0.40566-0.08613-0.5884-0.55896-1.0974-0.9865-1.5022-0.42755-0.4048-0.83664-0.6904-0.83664-0.6904a0.26461 0.26461 0 0 0-0.20309-0.042376z" fill="#222" fill-opacity=".35" stroke-width=".26458"/>
 <path d="m2.9104 2.9104h0.3638l0.29766 0.28939 0.28939-0.28939h0.37207v0.38861l-0.28939 0.28112 0.28939 0.28112v0.37207h-0.38034l-0.28112-0.28112-0.28112 0.28112h-0.38034v-0.37207l0.28112-0.28112-0.28112-0.28112z" fill="#222" stroke-width=".26458"/>
</svg>
