<svg width="4.2333mm" height="4.2352mm" version="1.1" viewBox="0 0 4.2333 4.2352" xmlns="http://www.w3.org/2000/svg">
 <g transform="translate(-149.18 -105.6)" fill="#222" stroke-width=".26458">
  <path d="m152.58 106.33-0.39739 0.39429c-0.28454-0.20846-0.63371-0.33331-1.0118-0.33331-0.94668 0-1.7198 0.77311-1.7198 1.7198s0.77311 1.7198 1.7198 1.7198c0.94669 0 1.7198-0.77312 1.7198-1.7198 0-0.37837-0.1251-0.7277-0.33383-1.0123l0.39584-0.39274zm-1.4092 0.59015c0.6607 0 1.1906 0.52993 1.1906 1.1906 0 0.6607-0.52993 1.1906-1.1906 1.1906-0.66069 0-1.1906-0.52993-1.1906-1.1906 0-0.66069 0.52993-1.1906 1.1906-1.1906z"/>
  <path d="m150.48 105.6a0.26461 0.26461 0 1 0 0 0.52917h1.386a0.26461 0.26461 0 1 0 0-0.52917z"/>
  <path d="m151.04 108.24h0.26459v-1.0583h-0.26459z"/>
 </g>
</svg>
