<svg width="4.2333mm" height="4.2333mm" version="1.1" viewBox="0 0 4.2333 4.2333" xmlns="http://www.w3.org/2000/svg">
 <g transform="translate(-136.98 -97.669)">
  <path d="m137.51 98.198h0.26458c3e-3 -3.2e-5 6e-3 -1.22e-4 8e-3 0 0.0675 3e-3 0.13491 0.03402 0.1819 0.08268l1.1328 1.1327 1.141-1.1327c0.0703-0.06099 0.11818-0.08083 0.1819-0.08268h0.26458v0.26458c0 0.07579-9e-3 0.14569-0.0661 0.19844l-1.1328 1.1327 1.1245 1.1245c0.0498 0.0498 0.0744 0.11998 0.0744 0.19017v0.26458h-0.26458c-0.0702 0-0.14039-0.0246-0.19017-0.0744l-1.1328-1.1328-1.1328 1.1328c-0.0498 0.0498-0.11997 0.0744-0.19016 0.0744h-0.26459v-0.26458c0-0.0702 0.0246-0.14038 0.0744-0.19017l1.1327-1.1245-1.1327-1.1327c-0.0558-0.0515-0.0802-0.12416-0.0744-0.19844z" fill="#222" stroke-width=".26458"/>
 </g>
</svg>
