<svg width="4.2612mm" height="4.2338mm" version="1.1" viewBox="0 0 4.2612 4.2338" xmlns="http://www.w3.org/2000/svg">
 <g transform="translate(-181.18 -109.98)">
  <g transform="matrix(.26458 0 0 .26458 -45.274 51.771)">
   <title>send-alt</title>
   <path d="m870.84 220.01c-0.11888 0.019-0.23335 0.0594-0.33789 0.11914l-14 8c-0.73349 0.4178-0.65139 1.5003 0.13671 1.8027l4.3594 1.6758v3.3906c3.5e-4 0.89063 1.077 1.3366 1.707 0.70703l2.4844-2.4844 4.4492 1.7109c0.62491 0.23979 1.3044-0.19004 1.3555-0.85742l1-13c0.0379-0.50141-0.30248-0.95295-0.79492-1.0547-0.11822-0.0249-0.23997-0.0282-0.35937-0.01zm-0.98242 2.793-0.75196 9.7793-4.4414-1.707 3.334-4.877-5.0566 4.2129-3.6172-1.3906z" fill="#222"/>
   <rect x="855.89" y="220" width="16" height="16" fill="none"/>
  </g>
 </g>
</svg>
