<svg width="4.2334mm" height="4.2333mm" version="1.1" viewBox="0 0 4.2334 4.2333" xmlns="http://www.w3.org/2000/svg">
 <g transform="matrix(.26458 0 0 .26458 -32.279 -105.3)" enable-background="new" fill="#222">
  <title>shield-warning</title>
  <path d="m122 400.32v5.5056c0 2.2151 1.1853 4.2576 3.1086 5.3567l4.8914 2.7951 4.8914-2.7951c1.9233-1.099 3.1086-3.1415 3.1086-5.3567v-5.5056l-8-2.2857zm14.725 1.7158-0.72528-0.96152v4.7513c0 1.4951-0.80275 2.8784-2.1009 3.6202l-4.3953 2.5116h0.99228l-4.3953-2.5116c-1.2981-0.74178-2.1009-2.1251-2.1009-3.6202v-4.7513l-0.72528 0.96152 7-2h-0.54944z" fill="#000"/>
  <path d="m129 402v2.988a1.012 1.012 45 0 0 1.012 1.012 1.0001 1.0001 134.31 0 0 0.98798-1.012v-2.988z" color="#000000" fill="#000"/>
  <circle cx="130" cy="408" r="1" fill="#222" stop-color="#000000"/>
 </g>
</svg>
